<svg width="25" height="28" viewBox="0 0 25 28" fill="none" xmlns="http://www.w3.org/2000/svg">
<path d="M12.7588 6.4649C14.2809 6.4649 15.5148 5.22503 15.5148 3.69558C15.5148 2.16613 14.2809 0.92627 12.7588 0.92627C11.2368 0.92627 10.0029 2.16613 10.0029 3.69558C10.0029 5.22503 11.2368 6.4649 12.7588 6.4649Z" fill="url(#paint0_linear_506_1965)"/>
<path d="M4.2647 12.1734C5.78676 12.1734 7.02062 10.9335 7.02062 9.40408C7.02062 7.87463 5.78676 6.63477 4.2647 6.63477C2.74265 6.63477 1.50879 7.87463 1.50879 9.40408C1.50879 10.9335 2.74265 12.1734 4.2647 12.1734Z" fill="url(#paint1_linear_506_1965)"/>
<path d="M21.3233 9.9898C22.8453 9.9898 24.0792 8.74993 24.0792 7.22048C24.0792 5.69104 22.8453 4.45117 21.3233 4.45117C19.8012 4.45117 18.5674 5.69104 18.5674 7.22048C18.5674 8.74993 19.8012 9.9898 21.3233 9.9898Z" fill="url(#paint2_linear_506_1965)"/>
<path d="M8.21266 19.7306V24.2019C8.21232 24.4554 8.11187 24.6983 7.93338 24.8775C7.75489 25.0566 7.51296 25.1572 7.2607 25.1572H2.85329C2.60104 25.1572 2.3591 25.0566 2.18061 24.8775C2.00212 24.6983 1.90168 24.4554 1.90134 24.2019V14.3155C1.90468 14.0936 1.83223 13.8772 1.69608 13.7025C1.55993 13.5277 1.36829 13.4051 1.1531 13.3551C1.01425 13.3249 0.87043 13.3264 0.732202 13.3593C0.593974 13.3923 0.464838 13.4559 0.354265 13.5455C0.243691 13.6352 0.154484 13.7485 0.0931829 13.8773C0.0318822 14.0061 4.26576e-05 14.147 0 14.2898V24.2032C-3.78035e-08 24.5796 0.0738126 24.9524 0.21722 25.3002C0.360626 25.648 0.570817 25.964 0.835786 26.2301C1.10075 26.4962 1.41531 26.7073 1.76148 26.8513C2.10765 26.9952 2.47865 27.0692 2.85329 27.069H7.2607C7.63534 27.0692 8.00635 26.9952 8.35252 26.8513C8.69868 26.7073 9.01324 26.4962 9.27821 26.2301C9.54318 25.964 9.75337 25.648 9.89678 25.3002C10.0402 24.9524 10.114 24.5796 10.114 24.2032V19.7306C10.114 19.4772 10.0138 19.2342 9.83555 19.0551C9.65727 18.8759 9.41546 18.7753 9.16333 18.7753C8.91119 18.7753 8.66939 18.8759 8.4911 19.0551C8.31282 19.2342 8.21266 19.4772 8.21266 19.7306Z" fill="url(#paint3_linear_506_1965)"/>
<path style="mix-blend-mode:multiply" d="M8.21289 24.2368L8.21673 20.5649H10.1142V24.323" fill="url(#paint4_linear_506_1965)"/>
<path d="M23.8579 11.4356H17.7926V9.40402C17.7926 9.27857 17.768 9.15435 17.7202 9.03845C17.6725 8.92255 17.6024 8.81724 17.5142 8.72853C17.4259 8.63982 17.3211 8.56946 17.2058 8.52145C17.0904 8.47344 16.9668 8.44873 16.8419 8.44873H9.16356C8.91143 8.44873 8.66962 8.54938 8.49133 8.72853C8.31305 8.90768 8.21289 9.15066 8.21289 9.40402V20.4761C8.21289 20.7295 8.31305 20.9725 8.49133 21.1516C8.66962 21.3308 8.91143 21.4314 9.16356 21.4314C9.41569 21.4314 9.6575 21.3308 9.83578 21.1516C10.0141 20.9725 10.1142 20.7295 10.1142 20.4761V10.3593H15.8874V17.9347C15.8848 18.1572 15.9582 18.3739 16.0953 18.5486C16.2323 18.7234 16.4249 18.8457 16.6408 18.8951C16.7797 18.9251 16.9236 18.9234 17.0618 18.8903C17.2 18.8572 17.3291 18.7934 17.4397 18.7037C17.5502 18.614 17.6394 18.5005 17.7007 18.3717C17.762 18.2429 17.7938 18.1019 17.7939 17.9591V13.3462H22.9085V26.092C22.9054 26.3144 22.9784 26.5312 23.1153 26.7061C23.2522 26.8809 23.4447 27.0032 23.6606 27.0524C23.7996 27.0826 23.9435 27.0811 24.0818 27.0481C24.2202 27.0151 24.3494 26.9514 24.46 26.8616C24.5706 26.7718 24.6597 26.6583 24.721 26.5293C24.7822 26.4004 24.8139 26.2593 24.8137 26.1165V12.3909C24.8137 12.265 24.789 12.1404 24.7409 12.0241C24.6928 11.9079 24.6223 11.8024 24.5335 11.7136C24.4447 11.6248 24.3392 11.5546 24.2233 11.5069C24.1074 11.4592 23.9832 11.4349 23.8579 11.4356Z" fill="url(#paint5_linear_506_1965)"/>
<defs>
<linearGradient id="paint0_linear_506_1965" x1="12.7588" y1="20.4441" x2="12.7588" y2="0.873484" gradientUnits="userSpaceOnUse">
<stop stop-color="#FED12E"/>
<stop offset="0.15" stop-color="#E6CE31"/>
<stop offset="0.48" stop-color="#A8C53A"/>
<stop offset="0.94" stop-color="#46B748"/>
<stop offset="1" stop-color="#39B54A"/>
</linearGradient>
<linearGradient id="paint1_linear_506_1965" x1="4.26471" y1="5.68076" x2="4.26471" y2="23.9459" gradientUnits="userSpaceOnUse">
<stop stop-color="#FED12E"/>
<stop offset="0.15" stop-color="#E6CE31"/>
<stop offset="0.48" stop-color="#A8C53A"/>
<stop offset="0.94" stop-color="#46B748"/>
<stop offset="1" stop-color="#39B54A"/>
</linearGradient>
<linearGradient id="paint2_linear_506_1965" x1="21.3233" y1="20.4439" x2="21.3233" y2="0.873338" gradientUnits="userSpaceOnUse">
<stop stop-color="#FED12E"/>
<stop offset="0.15" stop-color="#E6CE31"/>
<stop offset="0.48" stop-color="#A8C53A"/>
<stop offset="0.94" stop-color="#46B748"/>
<stop offset="1" stop-color="#39B54A"/>
</linearGradient>
<linearGradient id="paint3_linear_506_1965" x1="5.057" y1="5.68059" x2="5.057" y2="23.9457" gradientUnits="userSpaceOnUse">
<stop stop-color="#FED12E"/>
<stop offset="0.15" stop-color="#E6CE31"/>
<stop offset="0.48" stop-color="#A8C53A"/>
<stop offset="0.94" stop-color="#46B748"/>
<stop offset="1" stop-color="#39B54A"/>
</linearGradient>
<linearGradient id="paint4_linear_506_1965" x1="9.16356" y1="24.126" x2="9.16356" y2="21.0156" gradientUnits="userSpaceOnUse">
<stop stop-color="white" stop-opacity="0"/>
<stop offset="1" stop-color="#231F20"/>
</linearGradient>
<linearGradient id="paint5_linear_506_1965" x1="16.5101" y1="20.4439" x2="16.5101" y2="0.873355" gradientUnits="userSpaceOnUse">
<stop stop-color="#FED12E"/>
<stop offset="0.15" stop-color="#E6CE31"/>
<stop offset="0.48" stop-color="#A8C53A"/>
<stop offset="0.94" stop-color="#46B748"/>
<stop offset="1" stop-color="#39B54A"/>
</linearGradient>
</defs>
</svg>
