<svg width="17" height="17" viewBox="0 0 17 17" fill="none" xmlns="http://www.w3.org/2000/svg">
<path d="M9.69063 15.3932L9.23888 16.1564C8.83624 16.8367 7.83039 16.8367 7.42775 16.1564L6.97601 15.3932C6.62561 14.8012 6.45041 14.5052 6.16899 14.3415C5.88758 14.1779 5.53327 14.1718 4.82465 14.1595C3.77852 14.1415 3.12241 14.0774 2.57215 13.8495C1.5512 13.4266 0.74006 12.6155 0.317169 11.5945C0 10.8288 0 9.85809 0 7.91667V7.08333C0 4.35547 0 2.99155 0.613999 1.98959C0.957565 1.42894 1.42894 0.957565 1.98959 0.613999C2.99155 0 4.35547 0 7.08333 0H9.58333C12.3112 0 13.6751 0 14.6771 0.613999C15.2377 0.957565 15.7091 1.42894 16.0527 1.98959C16.6667 2.99155 16.6667 4.35547 16.6667 7.08333V7.91667C16.6667 9.85809 16.6667 10.8288 16.3495 11.5945C15.9266 12.6155 15.1155 13.4266 14.0945 13.8495C13.5443 14.0774 12.8881 14.1415 11.842 14.1595C11.1334 14.1718 10.7791 14.1779 10.4976 14.3415C10.2162 14.5052 10.041 14.8012 9.69063 15.3932Z" fill="url(#paint0_linear_38_21)"/>
<defs>
<linearGradient id="paint0_linear_38_21" x1="0" y1="8.3333" x2="16.6667" y2="8.3333" gradientUnits="userSpaceOnUse">
<stop stop-color="#49D043"/>
<stop offset="1" stop-color="#FFB912"/>
</linearGradient>
</defs>
</svg>
