<svg width="20" height="20" viewBox="0 0 20 20" fill="none" xmlns="http://www.w3.org/2000/svg">
<ellipse cx="7.50081" cy="5" rx="3.33333" ry="3.33333" fill="url(#paint0_linear_38_32)"/>
<ellipse cx="7.50081" cy="14.1675" rx="5.83333" ry="3.33333" fill="url(#paint1_linear_38_32)"/>
<path d="M17.4991 14.167C17.4991 15.5478 15.8028 16.667 13.7318 16.667C14.3419 16.0001 14.7615 15.1629 14.7615 14.1682C14.7615 13.1723 14.341 12.3344 13.7296 11.6671C15.8007 11.6671 17.4991 12.7863 17.4991 14.167Z" fill="url(#paint2_linear_38_32)"/>
<path d="M14.9991 5.00061C14.9991 6.38132 13.8798 7.50061 12.4991 7.50061C12.198 7.50061 11.9094 7.44739 11.6421 7.34984C12.0363 6.65643 12.2615 5.85435 12.2615 4.99968C12.2615 4.14564 12.0367 3.34411 11.643 2.65106C11.91 2.55371 12.1984 2.50061 12.4991 2.50061C13.8798 2.50061 14.9991 3.6199 14.9991 5.00061Z" fill="url(#paint3_linear_38_32)"/>
<defs>
<linearGradient id="paint0_linear_38_32" x1="4.16748" y1="5" x2="10.8341" y2="5" gradientUnits="userSpaceOnUse">
<stop stop-color="#49D043"/>
<stop offset="1" stop-color="#FFB912"/>
</linearGradient>
<linearGradient id="paint1_linear_38_32" x1="1.66748" y1="14.1675" x2="13.3341" y2="14.1675" gradientUnits="userSpaceOnUse">
<stop stop-color="#49D043"/>
<stop offset="1" stop-color="#FFB912"/>
</linearGradient>
<linearGradient id="paint2_linear_38_32" x1="11.6421" y1="9.58382" x2="17.4991" y2="9.58382" gradientUnits="userSpaceOnUse">
<stop stop-color="#49D043"/>
<stop offset="1" stop-color="#FFB912"/>
</linearGradient>
<linearGradient id="paint3_linear_38_32" x1="11.6421" y1="9.58382" x2="17.4991" y2="9.58382" gradientUnits="userSpaceOnUse">
<stop stop-color="#49D043"/>
<stop offset="1" stop-color="#FFB912"/>
</linearGradient>
</defs>
</svg>
