<svg width="20" height="20" viewBox="0 0 20 20" fill="none" xmlns="http://www.w3.org/2000/svg">
<path d="M18.3331 6.80196L18.3331 6.86239C18.3331 7.57968 18.3331 7.93832 18.1604 8.23175C17.9878 8.52518 17.6743 8.69936 17.0473 9.04771L16.3861 9.415C16.8417 7.87487 16.9937 6.22012 17.0499 4.80498C17.0523 4.74431 17.055 4.68288 17.0577 4.62081L17.0597 4.57733C17.6024 4.76581 17.9071 4.90632 18.0972 5.17007C18.3332 5.49744 18.3331 5.93228 18.3331 6.80196Z" fill="url(#paint0_linear_38_64)"/>
<path d="M1.6665 6.80196L1.66651 6.86239C1.66653 7.57968 1.66654 7.93832 1.83919 8.23175C2.01185 8.52518 2.32536 8.69936 2.95238 9.04771L3.61384 9.4152C3.15823 7.87501 3.00623 6.22019 2.95005 4.80498C2.94764 4.74431 2.94492 4.68288 2.94218 4.62081L2.94026 4.57723C2.39734 4.76575 2.09255 4.90627 1.90242 5.17007C1.66647 5.49744 1.66648 5.93228 1.6665 6.80196Z" fill="url(#paint1_linear_38_64)"/>
<path fill-rule="evenodd" clip-rule="evenodd" d="M13.6474 1.95562C12.7107 1.79758 11.4863 1.66667 9.99997 1.66667C8.51368 1.66667 7.2892 1.79758 6.35249 1.95562C5.40354 2.11573 4.92907 2.19579 4.53264 2.68403C4.13621 3.17228 4.15716 3.69998 4.19906 4.7554C4.34291 8.37865 5.1248 12.9042 9.37484 13.3047V16.25H8.18301C7.78577 16.25 7.44376 16.5304 7.36586 16.9199L7.20817 17.7083H4.99984C4.65466 17.7083 4.37484 17.9882 4.37484 18.3333C4.37484 18.6785 4.65466 18.9583 4.99984 18.9583H14.9998C15.345 18.9583 15.6248 18.6785 15.6248 18.3333C15.6248 17.9882 15.345 17.7083 14.9998 17.7083H12.7915L12.6338 16.9199C12.5559 16.5304 12.2139 16.25 11.8167 16.25H10.6248V13.3047C14.8751 12.9044 15.657 8.37872 15.8009 4.7554C15.8428 3.69998 15.8637 3.17228 15.4673 2.68403C15.0709 2.19579 14.5964 2.11573 13.6474 1.95562Z" fill="url(#paint2_linear_38_64)"/>
<defs>
<linearGradient id="paint0_linear_38_64" x1="1.6665" y1="10.3125" x2="18.3331" y2="10.3125" gradientUnits="userSpaceOnUse">
<stop stop-color="#49D043"/>
<stop offset="1" stop-color="#FFB912"/>
</linearGradient>
<linearGradient id="paint1_linear_38_64" x1="1.6665" y1="10.3125" x2="18.3331" y2="10.3125" gradientUnits="userSpaceOnUse">
<stop stop-color="#49D043"/>
<stop offset="1" stop-color="#FFB912"/>
</linearGradient>
<linearGradient id="paint2_linear_38_64" x1="1.6665" y1="10.3125" x2="18.3331" y2="10.3125" gradientUnits="userSpaceOnUse">
<stop stop-color="#49D043"/>
<stop offset="1" stop-color="#FFB912"/>
</linearGradient>
</defs>
</svg>
