<svg width="20" height="20" viewBox="0 0 20 20" fill="none" xmlns="http://www.w3.org/2000/svg">
<path fill-rule="evenodd" clip-rule="evenodd" d="M8.80051 1.875H8.80059H11.1994H11.1995C11.294 1.87499 11.3676 1.87498 11.4373 1.87919C12.321 1.93271 13.0948 2.49046 13.425 3.31188C13.451 3.37662 13.4743 3.4465 13.5042 3.53623L13.5067 3.54379C13.5762 3.73077 13.7356 3.94338 13.9587 4.11324C13.9835 4.13215 14.0085 4.15 14.0334 4.16681C15.8283 4.1689 16.7652 4.20204 17.411 4.72748C17.5435 4.83527 17.6646 4.95635 17.7724 5.08883C18.3332 5.77808 18.3332 6.79898 18.3332 8.84077C18.3332 9.35888 18.3332 9.61793 18.2075 9.82C18.183 9.85937 18.1553 9.89662 18.1247 9.93137C17.9672 10.1098 17.7191 10.1842 17.2228 10.3331L13.3332 11.5V10.8333C13.3332 9.91286 12.587 9.16667 11.6665 9.16667H8.33317C7.4127 9.16667 6.6665 9.91286 6.6665 10.8333V11.5L2.77684 10.3331C2.28059 10.1842 2.03246 10.1098 1.87501 9.93137C1.84434 9.89662 1.81663 9.85937 1.79215 9.82C1.6665 9.61793 1.6665 9.35888 1.6665 8.84077C1.6665 6.79898 1.6665 5.77808 2.22732 5.08883C2.33511 4.95635 2.45619 4.83527 2.58867 4.72748C3.23445 4.20204 4.17135 4.1689 5.96628 4.16681C5.99123 4.14999 6.01618 4.13213 6.04103 4.11321C6.26424 3.94332 6.42362 3.7307 6.49308 3.54375C6.52471 3.44886 6.54836 3.37807 6.57498 3.31188C6.9052 2.49046 7.67902 1.93271 8.56272 1.87919C8.63235 1.87498 8.70595 1.87499 8.80051 1.875ZM12.3487 4.01509C12.3689 4.0664 12.3911 4.11695 12.4152 4.16667H7.58461C7.60866 4.11703 7.63084 4.06656 7.65096 4.01535L7.65225 4.01244L7.65573 4.00418L7.65979 3.99408L7.66361 3.98411L7.66664 3.97582L7.66812 3.97164L7.67165 3.96144L7.67485 3.95203L7.67659 3.94681L7.67887 3.93986L7.68073 3.934L7.68222 3.92918C7.71458 3.83227 7.72515 3.80205 7.73477 3.77813C7.88487 3.40475 8.23661 3.15124 8.63828 3.12691C8.66517 3.12528 8.69812 3.125 8.81761 3.125H11.1824C11.3019 3.125 11.3348 3.12528 11.3617 3.12691C11.7634 3.15124 12.1151 3.40475 12.2652 3.77813C12.2747 3.8017 12.2847 3.83081 12.3176 3.92916L12.319 3.93392L12.3209 3.93982L12.3232 3.94678L12.3249 3.952L12.3281 3.96139L12.3316 3.97157L12.3331 3.97574L12.3362 3.98401L12.3399 3.99392L12.344 4.00393L12.3474 4.01207L12.3487 4.01509ZM11.6665 10.4167H8.33317C8.10305 10.4167 7.9165 10.6032 7.9165 10.8333V12.6346C7.9165 12.8049 8.02023 12.9582 8.17842 13.0214L8.76187 13.2548C9.55657 13.5727 10.4431 13.5727 11.2378 13.2548L11.8212 13.0214C11.9794 12.9582 12.0832 12.8049 12.0832 12.6346V10.8333C12.0832 10.6032 11.8966 10.4167 11.6665 10.4167ZM6.67547 12.8076L2.50472 11.5564C2.5298 14.1518 2.68141 16.5421 3.5981 17.3569C4.69645 18.3332 6.46422 18.3332 9.99975 18.3332C13.5353 18.3332 15.303 18.3332 16.4014 17.3569C17.3181 16.5421 17.4697 14.1518 17.4948 11.5564L13.3242 12.8076C13.2607 13.4182 12.8642 13.9506 12.2855 14.182L11.702 14.4154C10.6093 14.8525 9.39035 14.8525 8.29763 14.4154L7.71419 14.182C7.1355 13.9506 6.73902 13.4182 6.67547 12.8076Z" fill="url(#paint0_linear_38_51)"/>
<defs>
<linearGradient id="paint0_linear_38_51" x1="1.6665" y1="10.1041" x2="18.3332" y2="10.1041" gradientUnits="userSpaceOnUse">
<stop stop-color="#49D043"/>
<stop offset="1" stop-color="#FFB912"/>
</linearGradient>
</defs>
</svg>
