<svg width="20" height="20" viewBox="0 0 20 20" fill="none" xmlns="http://www.w3.org/2000/svg">
<path d="M13.7657 13.7511C13.9116 13.6373 14.0438 13.5051 14.3084 13.2405L17.6062 9.9427C17.6859 9.86297 17.6495 9.72565 17.5429 9.68869C17.1537 9.55363 16.6473 9.30008 16.1736 8.8264C15.6999 8.35272 15.4464 7.84634 15.3113 7.45707C15.2743 7.35054 15.137 7.31405 15.0573 7.39378L11.7595 10.6916C11.4949 10.9561 11.3627 11.0884 11.2489 11.2343C11.1147 11.4063 10.9997 11.5924 10.9058 11.7894C10.8263 11.9563 10.7671 12.1338 10.6488 12.4887L10.4959 12.9473L10.2529 13.6765L10.025 14.3602C9.96674 14.5349 10.0122 14.7274 10.1424 14.8576C10.2726 14.9878 10.4651 15.0333 10.6398 14.975L11.3235 14.7471L12.0527 14.5041L12.5113 14.3512L12.5113 14.3512C12.8662 14.2329 13.0437 14.1737 13.2106 14.0942C13.4076 14.0003 13.5937 13.8853 13.7657 13.7511Z" fill="url(#paint0_linear_38_42)"/>
<path d="M18.6388 8.91015C19.3426 8.20628 19.3426 7.06509 18.6388 6.36123C17.9349 5.65736 16.7937 5.65736 16.0898 6.36123L15.9838 6.46725C15.8815 6.56956 15.8352 6.71246 15.8607 6.85488C15.8768 6.94446 15.9066 7.07544 15.9608 7.23172C16.0693 7.54428 16.274 7.95457 16.6597 8.34026C17.0454 8.72595 17.4557 8.93073 17.7683 9.03917C17.9246 9.09339 18.0555 9.12319 18.1451 9.13927C18.2875 9.16483 18.4304 9.11848 18.5327 9.01617L18.6388 8.91015Z" fill="url(#paint1_linear_38_42)"/>
<path fill-rule="evenodd" clip-rule="evenodd" d="M3.47631 2.64298C2.5 3.61929 2.5 5.19064 2.5 8.33334V11.6667C2.5 14.8094 2.5 16.3807 3.47631 17.357C4.45262 18.3333 6.02397 18.3333 9.16667 18.3333H10.8333C13.976 18.3333 15.5474 18.3333 16.5237 17.357C17.4843 16.3964 17.4997 14.8596 17.5 11.8167L15.1514 14.1653C14.9266 14.3903 14.7425 14.5745 14.5346 14.7367C14.2909 14.9268 14.0273 15.0897 13.7484 15.2226C13.5104 15.336 13.2632 15.4183 12.9615 15.5188L11.0351 16.1609C10.4113 16.3688 9.7235 16.2065 9.25852 15.7415C8.79355 15.2765 8.6312 14.5888 8.83914 13.965L9.06705 13.2812L9.46298 12.0934L9.48124 12.0386C9.58171 11.7368 9.66399 11.4897 9.77745 11.2516C9.91037 10.9727 10.0733 10.7091 10.2633 10.4655C10.4255 10.2575 10.6098 10.0734 10.8347 9.84859L14.1734 6.50991L15.1 5.58338L15.206 5.47735C15.8022 4.88118 16.5836 4.58318 17.365 4.58334C17.2389 3.72455 16.9951 3.1144 16.5237 2.64298C15.5474 1.66667 13.976 1.66667 10.8333 1.66667H9.16667C6.02397 1.66667 4.45262 1.66667 3.47631 2.64298ZM6.04167 7.50001C6.04167 7.15483 6.32149 6.87501 6.66667 6.87501H12.0833C12.4285 6.87501 12.7083 7.15483 12.7083 7.50001C12.7083 7.84518 12.4285 8.12501 12.0833 8.12501H6.66667C6.32149 8.12501 6.04167 7.84518 6.04167 7.50001ZM6.04167 10.8333C6.04167 10.4882 6.32149 10.2083 6.66667 10.2083H8.75C9.09518 10.2083 9.375 10.4882 9.375 10.8333C9.375 11.1785 9.09518 11.4583 8.75 11.4583H6.66667C6.32149 11.4583 6.04167 11.1785 6.04167 10.8333ZM6.04167 14.1667C6.04167 13.8215 6.32149 13.5417 6.66667 13.5417H7.91667C8.26184 13.5417 8.54167 13.8215 8.54167 14.1667C8.54167 14.5119 8.26184 14.7917 7.91667 14.7917H6.66667C6.32149 14.7917 6.04167 14.5119 6.04167 14.1667Z" fill="url(#paint2_linear_38_42)"/>
<defs>
<linearGradient id="paint0_linear_38_42" x1="10" y1="10.4167" x2="19.1667" y2="10.4167" gradientUnits="userSpaceOnUse">
<stop stop-color="#49D043"/>
<stop offset="1" stop-color="#FFB912"/>
</linearGradient>
<linearGradient id="paint1_linear_38_42" x1="10" y1="10.4167" x2="19.1667" y2="10.4167" gradientUnits="userSpaceOnUse">
<stop stop-color="#49D043"/>
<stop offset="1" stop-color="#FFB912"/>
</linearGradient>
<linearGradient id="paint2_linear_38_42" x1="2.5" y1="10" x2="17.5" y2="10" gradientUnits="userSpaceOnUse">
<stop stop-color="#49D043"/>
<stop offset="1" stop-color="#FFB912"/>
</linearGradient>
</defs>
</svg>
