<svg width="20" height="20" viewBox="0 0 20 20" fill="none" xmlns="http://www.w3.org/2000/svg">
<path d="M9.37464 1.66667C5.85938 1.6701 4.04057 1.73299 2.88669 2.88686C1.73282 4.04074 1.66993 5.85954 1.6665 9.37481H5.7611C5.46863 9.00948 5.25009 8.57856 5.13093 8.1019C4.68238 6.30772 6.30756 4.68255 8.10174 5.1311C8.57839 5.25026 9.00931 5.46879 9.37464 5.76127V1.66667Z" fill="url(#paint0_linear_38_59)"/>
<path d="M1.6665 10.6248C1.66993 14.1401 1.73282 15.9589 2.88669 17.1128C4.04057 18.2666 5.85938 18.3295 9.37464 18.3329V11.7695C8.72494 13.0672 7.383 13.9581 5.83297 13.9581C5.4878 13.9581 5.20797 13.6783 5.20797 13.3331C5.20797 12.988 5.4878 12.7081 5.83297 12.7081C7.11363 12.7081 8.18668 11.8193 8.46884 10.6248H1.6665Z" fill="url(#paint1_linear_38_59)"/>
<path d="M10.6246 18.3329C14.1399 18.3295 15.9587 18.2666 17.1126 17.1128C18.2665 15.9589 18.3294 14.1401 18.3328 10.6248H11.5304C11.8126 11.8193 12.8856 12.7081 14.1663 12.7081C14.5115 12.7081 14.7913 12.988 14.7913 13.3331C14.7913 13.6783 14.5115 13.9581 14.1663 13.9581C12.6163 13.9581 11.2743 13.0672 10.6246 11.7695V18.3329Z" fill="url(#paint2_linear_38_59)"/>
<path d="M18.3328 9.37481C18.3294 5.85954 18.2665 4.04074 17.1126 2.88686C15.9587 1.73299 14.1399 1.6701 10.6246 1.66667V5.76127C10.99 5.46879 11.4209 5.25026 11.8975 5.1311C13.6917 4.68255 15.3169 6.30772 14.8684 8.1019C14.7492 8.57856 14.5307 9.00948 14.2382 9.37481H18.3328Z" fill="url(#paint3_linear_38_59)"/>
<path d="M7.79857 6.34377C8.72484 6.57534 9.37464 7.4076 9.37464 8.36237V9.37481H8.36221C7.40743 9.37481 6.57517 8.725 6.34361 7.79873C6.12393 6.92003 6.91986 6.1241 7.79857 6.34377Z" fill="url(#paint4_linear_38_59)"/>
<path d="M10.6246 8.36237V9.37481H11.6371C12.5919 9.37481 13.4241 8.725 13.6557 7.79873C13.8753 6.92003 13.0794 6.1241 12.2007 6.34377C11.2744 6.57534 10.6246 7.4076 10.6246 8.36237Z" fill="url(#paint5_linear_38_59)"/>
<defs>
<linearGradient id="paint0_linear_38_59" x1="1.6665" y1="9.99981" x2="18.3328" y2="9.99981" gradientUnits="userSpaceOnUse">
<stop stop-color="#49D043"/>
<stop offset="1" stop-color="#FFB912"/>
</linearGradient>
<linearGradient id="paint1_linear_38_59" x1="1.6665" y1="9.99981" x2="18.3328" y2="9.99981" gradientUnits="userSpaceOnUse">
<stop stop-color="#49D043"/>
<stop offset="1" stop-color="#FFB912"/>
</linearGradient>
<linearGradient id="paint2_linear_38_59" x1="1.6665" y1="9.99981" x2="18.3328" y2="9.99981" gradientUnits="userSpaceOnUse">
<stop stop-color="#49D043"/>
<stop offset="1" stop-color="#FFB912"/>
</linearGradient>
<linearGradient id="paint3_linear_38_59" x1="1.6665" y1="9.99981" x2="18.3328" y2="9.99981" gradientUnits="userSpaceOnUse">
<stop stop-color="#49D043"/>
<stop offset="1" stop-color="#FFB912"/>
</linearGradient>
<linearGradient id="paint4_linear_38_59" x1="1.6665" y1="9.99981" x2="18.3328" y2="9.99981" gradientUnits="userSpaceOnUse">
<stop stop-color="#49D043"/>
<stop offset="1" stop-color="#FFB912"/>
</linearGradient>
<linearGradient id="paint5_linear_38_59" x1="1.6665" y1="9.99981" x2="18.3328" y2="9.99981" gradientUnits="userSpaceOnUse">
<stop stop-color="#49D043"/>
<stop offset="1" stop-color="#FFB912"/>
</linearGradient>
</defs>
</svg>
