<svg width="20" height="20" viewBox="0 0 20 20" fill="none" xmlns="http://www.w3.org/2000/svg">
<g opacity="0.9">
<path d="M4.46967 14.4697C4.17678 14.7626 4.17678 15.2374 4.46967 15.5303C4.76256 15.8232 5.23744 15.8232 5.53033 15.5303L4.46967 14.4697ZM15 5H15.75C15.75 4.58579 15.4142 4.25 15 4.25V5ZM7.5 4.25C7.08579 4.25 6.75 4.58579 6.75 5C6.75 5.41421 7.08579 5.75 7.5 5.75V4.25ZM14.25 12.5C14.25 12.9142 14.5858 13.25 15 13.25C15.4142 13.25 15.75 12.9142 15.75 12.5H14.25ZM5.53033 15.5303L15.5303 5.53033L14.4697 4.46967L4.46967 14.4697L5.53033 15.5303ZM15 4.25H7.5V5.75H15V4.25ZM14.25 5V12.5H15.75V5H14.25Z" fill="white"/>
</g>
</svg>
