<svg width="16" height="16" viewBox="0 0 16 16" fill="none" xmlns="http://www.w3.org/2000/svg">
<path fill-rule="evenodd" clip-rule="evenodd" d="M7.99967 14.6668C11.6816 14.6668 14.6663 11.6821 14.6663 8.00016C14.6663 4.31826 11.6816 1.3335 7.99967 1.3335C4.31778 1.3335 1.33301 4.31826 1.33301 8.00016C1.33301 11.6821 4.31778 14.6668 7.99967 14.6668ZM8.49967 6.00016C8.49967 5.72402 8.27582 5.50016 7.99967 5.50016C7.72353 5.50016 7.49967 5.72402 7.49967 6.00016L7.49967 7.50018H5.99967C5.72353 7.50018 5.49967 7.72404 5.49967 8.00018C5.49967 8.27632 5.72353 8.50018 5.99967 8.50018H7.49967V10.0002C7.49967 10.2763 7.72353 10.5002 7.99967 10.5002C8.27582 10.5002 8.49967 10.2763 8.49967 10.0002L8.49967 8.50018H9.99967C10.2758 8.50018 10.4997 8.27632 10.4997 8.00018C10.4997 7.72404 10.2758 7.50018 9.99967 7.50018H8.49967V6.00016Z" fill="white"/>
</svg>
