<svg width="14" height="15" viewBox="0 0 14 15" fill="none" xmlns="http://www.w3.org/2000/svg">
<path fill-rule="evenodd" clip-rule="evenodd" d="M6.99935 2.10449C4.01931 2.10449 1.60352 4.52029 1.60352 7.50033C1.60352 10.4804 4.01931 12.8962 6.99935 12.8962C9.97939 12.8962 12.3952 10.4804 12.3952 7.50033C12.3952 4.52029 9.97939 2.10449 6.99935 2.10449ZM0.728516 7.50033C0.728516 4.03704 3.53606 1.22949 6.99935 1.22949C10.4626 1.22949 13.2702 4.03704 13.2702 7.50033C13.2702 10.9636 10.4626 13.7712 6.99935 13.7712C3.53606 13.7712 0.728516 10.9636 0.728516 7.50033ZM6.99935 4.72949C7.24097 4.72949 7.43685 4.92537 7.43685 5.16699V7.31911L8.76704 8.6493C8.9379 8.82015 8.9379 9.09716 8.76704 9.26802C8.59619 9.43887 8.31918 9.43887 8.14832 9.26802L6.68999 7.80968C6.60794 7.72764 6.56185 7.61636 6.56185 7.50033V5.16699C6.56185 4.92537 6.75772 4.72949 6.99935 4.72949Z" fill="white" fill-opacity="0.7"/>
</svg>
