<svg width="28" height="28" viewBox="0 0 28 28" fill="none" xmlns="http://www.w3.org/2000/svg">
<path fill-rule="evenodd" clip-rule="evenodd" d="M15.7359 5.16895C16.1029 5.48344 16.1453 6.03583 15.8309 6.40274L9.31895 14L15.8309 21.5972C16.1453 21.9641 16.1029 22.5165 15.7359 22.831C15.369 23.1455 14.8166 23.103 14.5022 22.7361L7.50215 14.5694C7.22129 14.2417 7.22129 13.7582 7.50215 13.4305L14.5022 5.26386C14.8166 4.89695 15.369 4.85445 15.7359 5.16895Z" fill="#909090"/>
<path d="M20.7082 5.83334C20.7082 5.46717 20.4802 5.13973 20.1368 5.01269C19.7933 4.88565 19.4071 4.98588 19.1688 5.2639L12.1688 13.4306C11.888 13.7582 11.888 14.2418 12.1688 14.5694L19.1688 22.7361C19.4071 23.0141 19.7933 23.1144 20.1368 22.9873C20.4802 22.8603 20.7082 22.5328 20.7082 22.1667L20.7082 5.83334Z" fill="#909090"/>
</svg>
