<svg width="14" height="20" viewBox="0 0 14 20" fill="none" xmlns="http://www.w3.org/2000/svg">
<path fill-rule="evenodd" clip-rule="evenodd" d="M8.73644 1.16916C9.10335 1.48366 9.14584 2.03604 8.83134 2.40295L2.31944 10.0002L8.83134 17.5974C9.14584 17.9643 9.10334 18.5167 8.73643 18.8312C8.36952 19.1457 7.81714 19.1032 7.50264 18.7363L0.502643 10.5696C0.221775 10.2419 0.221775 9.75841 0.502643 9.43073L7.50264 1.26407C7.81714 0.897159 8.36953 0.854668 8.73644 1.16916Z" fill="#454645"/>
<path d="M13.7087 1.83355C13.7087 1.46739 13.4807 1.13994 13.1372 1.0129C12.7938 0.885864 12.4076 0.986097 12.1693 1.26411L5.16931 9.43078C4.88844 9.75846 4.88844 10.242 5.16931 10.5697L12.1693 18.7363C12.4076 19.0143 12.7938 19.1146 13.1372 18.9875C13.4807 18.8605 13.7087 18.5331 13.7087 18.1669L13.7087 1.83355Z" fill="#454645"/>
</svg>
