<svg width="48" height="48" viewBox="0 0 48 48" fill="none" xmlns="http://www.w3.org/2000/svg">
<path d="M28.2417 23.9987L35.9997 16.2327C36.5034 15.6602 36.7702 14.9174 36.7458 14.1552C36.7215 13.3931 36.4079 12.6688 35.8687 12.1297C35.3295 11.5905 34.6052 11.2768 33.8431 11.2525C33.0809 11.2282 32.3382 11.495 31.7657 11.9987L23.9997 19.7567L16.2197 11.9747C15.941 11.696 15.6102 11.475 15.2461 11.3241C14.882 11.1733 14.4918 11.0957 14.0977 11.0957C13.7036 11.0957 13.3133 11.1733 12.9492 11.3241C12.5852 11.475 12.2543 11.696 11.9757 11.9747C11.697 12.2533 11.476 12.5842 11.3251 12.9482C11.1743 13.3123 11.0967 13.7026 11.0967 14.0967C11.0967 14.4908 11.1743 14.881 11.3251 15.2451C11.476 15.6092 11.697 15.94 11.9757 16.2187L19.7577 23.9987L11.9997 31.7627C11.6954 32.0346 11.4498 32.3658 11.278 32.736C11.1061 33.1061 11.0116 33.5074 11.0002 33.9154C10.9888 34.3233 11.0607 34.7293 11.2116 35.1085C11.3625 35.4876 11.5891 35.8321 11.8777 36.1206C12.1663 36.4092 12.5107 36.6359 12.8899 36.7867C13.269 36.9376 13.675 37.0096 14.0829 36.9981C14.4909 36.9867 14.8922 36.8922 15.2624 36.7203C15.6325 36.5485 15.9637 36.3029 16.2357 35.9987L23.9997 28.2407L31.7557 35.9987C32.3185 36.5615 33.0818 36.8776 33.8777 36.8776C34.6736 36.8776 35.4369 36.5615 35.9997 35.9987C36.5625 35.4359 36.8786 34.6726 36.8786 33.8767C36.8786 33.0808 36.5625 32.3175 35.9997 31.7547L28.2417 23.9987Z" fill="white"/>
</svg>
