<svg width="14" height="17" viewBox="0 0 14 17" fill="none" xmlns="http://www.w3.org/2000/svg">
<path d="M9.70933 7.90733C8.88714 6.92357 8.47604 6.43168 8.00347 6.50744C7.53089 6.58321 7.30981 7.17644 6.86765 8.36291L6.75325 8.66986C6.6276 9.00702 6.56478 9.1756 6.44254 9.29978C6.3203 9.42396 6.15249 9.48969 5.81687 9.62114L5.51131 9.74082C4.33023 10.2034 3.7397 10.4347 3.67235 10.9074C3.605 11.3802 4.10544 11.7813 5.10632 12.5835L5.36526 12.7911C5.64968 13.0191 5.79189 13.133 5.87421 13.2891C5.95652 13.4451 5.96963 13.6255 5.99585 13.9863L6.01971 14.3148C6.11196 15.5844 6.15808 16.2193 6.58903 16.4357C7.01998 16.6521 7.55035 16.3067 8.6111 15.6161L8.88552 15.4374C9.18695 15.2411 9.33767 15.143 9.51078 15.1153C9.68389 15.0875 9.85981 15.1333 10.2116 15.2248L10.5319 15.3081C11.77 15.6303 12.3891 15.7913 12.7228 15.4523C13.0565 15.1133 12.8838 14.4988 12.5385 13.2697L12.4492 12.9517C12.351 12.6024 12.302 12.4278 12.3266 12.2546C12.3513 12.0814 12.4469 11.9293 12.6382 11.6251L12.8122 11.3481C13.4852 10.2775 13.8216 9.74225 13.5969 9.31633C13.3722 8.89041 12.7351 8.85593 11.461 8.78697L11.1313 8.76913C10.7693 8.74953 10.5882 8.73973 10.4304 8.66046C10.2725 8.58118 10.1557 8.4414 9.92204 8.16185L9.70933 7.90733Z" fill="#D9D9D9"/>
<path d="M9.39793 3.30586L9.55046 3.74071C9.71799 4.21834 9.80176 4.45717 9.96474 4.63309C10.1277 4.80902 10.3515 4.90213 10.799 5.08835L11.2064 5.25789C12.7811 5.91321 13.5685 6.24088 13.6583 6.9106C13.6957 7.18938 13.6019 7.45057 13.3834 7.74249C13.3096 7.72251 13.2385 7.70622 13.1717 7.69263C12.7332 7.60348 12.1755 7.57343 11.6071 7.5428L11.199 7.52073C11.1205 7.51648 11.0595 7.51316 11.0072 7.50977C10.9726 7.46924 10.9327 7.42154 10.8813 7.36002L10.6183 7.0453C10.2513 6.60599 9.89222 6.17617 9.55831 5.87778C9.20222 5.55956 8.60697 5.14452 7.8057 5.27298C6.9959 5.40281 6.56394 5.99202 6.3309 6.41258C6.11498 6.80222 5.9208 7.32369 5.7242 7.85166L5.58205 8.23313C5.55804 8.29757 5.53877 8.34922 5.52181 8.39363C5.47738 8.41145 5.42568 8.43172 5.36111 8.457L4.98155 8.60565C4.45582 8.8114 3.93711 9.01441 3.55088 9.23664C3.13527 9.47578 2.55084 9.91746 2.43495 10.7309C2.32016 11.5366 2.74927 12.1248 3.07408 12.4736C3.31617 12.7335 3.64143 13.0078 3.98871 13.2888C2.68157 13.6434 1.98627 13.7757 1.59111 13.3492C1.14619 12.8689 1.37639 11.9983 1.8368 10.2571L1.95592 9.80664C2.08675 9.31184 2.15217 9.06444 2.11927 8.81911C2.08637 8.57378 1.95889 8.35828 1.70392 7.9273L1.4718 7.53492C0.574553 6.01826 0.125932 5.25993 0.425554 4.65653C0.725176 4.05314 1.57461 4.0043 3.27348 3.9066L3.713 3.88133C4.19577 3.85357 4.43715 3.83969 4.64764 3.72738C4.85812 3.61507 5.01389 3.41705 5.32541 3.02102L5.60902 2.66046C6.70528 1.26679 7.25341 0.569949 7.88351 0.67728C8.51361 0.784611 8.80838 1.62503 9.39793 3.30586Z" fill="#D9D9D9"/>
</svg>
