<svg width="24" height="22" viewBox="0 0 24 22" fill="none" xmlns="http://www.w3.org/2000/svg">
<path d="M23.6663 9.83333V12.1667C23.6663 16.5664 23.6663 18.7663 22.2995 20.1332C21.1628 21.2699 19.4499 21.4613 16.3747 21.4935V0.506523C19.4499 0.538742 21.1628 0.730117 22.2995 1.86683C23.6663 3.23367 23.6663 5.43356 23.6663 9.83333Z" fill="#ABACAB"/>
<path fill-rule="evenodd" clip-rule="evenodd" d="M9.66634 0.5H14.333H14.6247L14.6247 21.5H14.333H9.66634C5.26657 21.5 3.06668 21.5 1.69984 20.1332C0.333008 18.7663 0.333008 16.5664 0.333008 12.1667V9.83333C0.333008 5.43356 0.333008 3.23367 1.69984 1.86683C3.06668 0.5 5.26657 0.5 9.66634 0.5ZM3.54134 8.66667C3.54134 8.18342 3.93309 7.79167 4.41634 7.79167H11.4163C11.8996 7.79167 12.2913 8.18342 12.2913 8.66667C12.2913 9.14992 11.8996 9.54167 11.4163 9.54167H4.41634C3.93309 9.54167 3.54134 9.14992 3.54134 8.66667ZM4.70801 13.3333C4.70801 12.8501 5.09976 12.4583 5.58301 12.4583H10.2497C10.7329 12.4583 11.1247 12.8501 11.1247 13.3333C11.1247 13.8166 10.7329 14.2083 10.2497 14.2083H5.58301C5.09976 14.2083 4.70801 13.8166 4.70801 13.3333Z" fill="#ABACAB"/>
</svg>
