<svg width="17" height="17" viewBox="0 0 17 17" fill="none" xmlns="http://www.w3.org/2000/svg">
<path fill-rule="evenodd" clip-rule="evenodd" d="M0.432667 4.85228C0 5.64273 0 6.59624 0 8.50327V9.77079C0 13.0215 0 14.6469 0.976311 15.6568C1.95262 16.6667 3.52397 16.6667 6.66667 16.6667H10C13.1427 16.6667 14.714 16.6667 15.6904 15.6568C16.6667 14.6469 16.6667 13.0215 16.6667 9.77079V8.50327C16.6667 6.59624 16.6667 5.64273 16.234 4.85228C15.8013 4.06184 15.0109 3.57126 13.43 2.5901L11.7633 1.55572C10.0922 0.518575 9.25661 0 8.33333 0C7.41005 0 6.57449 0.518575 4.90336 1.55573L3.23669 2.59011C1.65579 3.57126 0.865334 4.06184 0.432667 4.85228ZM7.70833 13.3333C7.70833 13.6785 7.98816 13.9583 8.33333 13.9583C8.67851 13.9583 8.95833 13.6785 8.95833 13.3333V10.8333C8.95833 10.4882 8.67851 10.2083 8.33333 10.2083C7.98816 10.2083 7.70833 10.4882 7.70833 10.8333V13.3333Z" fill="#D9D9D9"/>
</svg>
