<svg width="18" height="18" viewBox="0 0 18 18" fill="none" xmlns="http://www.w3.org/2000/svg">
<path fill-rule="evenodd" clip-rule="evenodd" d="M1.88738 1.88689C0.666992 3.10728 0.666992 5.07147 0.666992 8.99984C0.666992 12.9282 0.666992 14.8924 1.88738 16.1128C3.10777 17.3332 5.07195 17.3332 9.00033 17.3332C12.9287 17.3332 14.8929 17.3332 16.1133 16.1128C17.3337 14.8924 17.3337 12.9282 17.3337 8.99984C17.3337 5.07147 17.3337 3.10728 16.1133 1.88689C14.8929 0.666504 12.9287 0.666504 9.00033 0.666504C5.07195 0.666504 3.10777 0.666504 1.88738 1.88689ZM7.78625 5.26421C8.0243 5.01425 8.01465 4.61864 7.76469 4.38059C7.51474 4.14253 7.11913 4.15218 6.88107 4.40214L4.95271 6.42692L4.45291 5.90214C4.21486 5.65218 3.81925 5.64253 3.56929 5.88059C3.31934 6.11864 3.30969 6.51425 3.54774 6.76421L4.50012 7.76421C4.61809 7.88807 4.78166 7.95817 4.95271 7.95817C5.12376 7.95817 5.28733 7.88807 5.40529 7.76421L7.78625 5.26421ZM9.83366 5.87484C9.48848 5.87484 9.20866 6.15466 9.20866 6.49984C9.20866 6.84502 9.48848 7.12484 9.83366 7.12484H14.0003C14.3455 7.12484 14.6253 6.84502 14.6253 6.49984C14.6253 6.15466 14.3455 5.87484 14.0003 5.87484H9.83366ZM7.78625 11.0975C8.0243 10.8476 8.01465 10.452 7.76469 10.2139C7.51474 9.97587 7.11913 9.98551 6.88107 10.2355L4.95271 12.2603L4.45291 11.7355C4.21486 11.4855 3.81925 11.4759 3.56929 11.7139C3.31934 11.952 3.30969 12.3476 3.54774 12.5975L4.50012 13.5975C4.61809 13.7214 4.78166 13.7915 4.95271 13.7915C5.12376 13.7915 5.28733 13.7214 5.40529 13.5975L7.78625 11.0975ZM9.83366 11.7082C9.48848 11.7082 9.20866 11.988 9.20866 12.3332C9.20866 12.6783 9.48848 12.9582 9.83366 12.9582H14.0003C14.3455 12.9582 14.6253 12.6783 14.6253 12.3332C14.6253 11.988 14.3455 11.7082 14.0003 11.7082H9.83366Z" fill="#D9D9D9"/>
</svg>
